# xmcd
#
# Track frame offsets: 
#        150
#        19392
#        31490
#        50272
#        67837
#        82220
#        95072
#        106825
#        120337
#        132932
#        143212
#        156605
#        171377
#
# Disc length: 2486 seconds
#
# Revision: 14
# Processed by: cddbd v1.5.2PL0 Copyright (c) Steve Scherf et al.
# Submitted via: ExactAudioCopy v0.99pb4
#
DISCID=b609b40d
DTITLE=Arnaldo Antunes, Carlinhos Brown, Marisa Monte - Tribalistas
DYEAR=2002
DGENRE=Brazilian
TTITLE0=Carnavália
TTITLE1=Um a Um
TTITLE2=Velha Infância
TTITLE3=Passe Em Casa
TTITLE4=O Amor É Feio
TTITLE5=É Você
TTITLE6=Carnalismo
TTITLE7=Mary Cristo
TTITLE8=Anjo Da Guarda
TTITLE9=Lá De Longe
TTITLE10=Pecado É Lhe Deixar De Molho
TTITLE11=Já Sei Namorar
TTITLE12=Tribalistas
EXTD=
EXTT0=
EXTT1=
EXTT2=
EXTT3=
EXTT4=
EXTT5=
EXTT6=
EXTT7=
EXTT8=
EXTT9=
EXTT10=
EXTT11=
EXTT12=
PLAYORDER=
